<svg width="124" height="124" viewBox="0 0 124 124" fill="none" xmlns="http://www.w3.org/2000/svg">
<rect x="2.5" y="2.87231" width="119" height="119" rx="59.5" stroke="#B1DDC4" stroke-width="4" stroke-dasharray="20 10"/>
<g clip-path="url(#clip0_1099_1012)">
<path d="M58.1562 70.0599H65.8438C66.9008 70.0599 67.7656 69.195 67.7656 68.138V58.5286H70.8214C72.5319 58.5286 73.3967 56.453 72.1859 55.2422L63.3645 46.4208C62.615 45.6713 61.4042 45.6713 60.6547 46.4208L51.8333 55.2422C50.6225 56.453 51.4681 58.5286 53.1786 58.5286H56.2344V68.138C56.2344 69.195 57.0992 70.0599 58.1562 70.0599ZM50.4688 73.9036H73.5312C74.5883 73.9036 75.4531 74.7684 75.4531 75.8255C75.4531 76.8825 74.5883 77.7474 73.5312 77.7474H50.4688C49.4117 77.7474 48.5469 76.8825 48.5469 75.8255C48.5469 74.7684 49.4117 73.9036 50.4688 73.9036Z" fill="#006633"/>
</g>
<defs>
<clipPath id="clip0_1099_1012">
<rect width="46.125" height="46.125" fill="white" transform="translate(38.9375 39.3098)"/>
</clipPath>
</defs>
</svg>
