<svg width="24" height="25" viewBox="0 0 24 25" fill="none" xmlns="http://www.w3.org/2000/svg">
<path fill-rule="evenodd" clip-rule="evenodd" d="M15.1032 6.23867C15.3246 6.01028 15.5895 5.82812 15.8823 5.70279C16.1751 5.57747 16.49 5.5115 16.8087 5.50875C17.1274 5.50599 17.4434 5.56649 17.7383 5.68672C18.0333 5.80696 18.3013 5.98451 18.5266 6.20903C18.7519 6.43355 18.9301 6.70054 19.0508 6.99442C19.1715 7.28829 19.2322 7.60317 19.2295 7.92067C19.2267 8.23818 19.1605 8.55196 19.0347 8.8437C18.9089 9.13544 18.7261 9.3993 18.4968 9.61989L14.8968 13.2067C14.4468 13.655 13.8364 13.9069 13.2 13.9069C12.5637 13.9069 11.9533 13.655 11.5032 13.2067C11.2769 12.989 10.9738 12.8684 10.6592 12.8712C10.3445 12.8739 10.0436 12.9996 9.82107 13.2213C9.59858 13.443 9.47237 13.7429 9.46964 14.0564C9.46691 14.3698 9.58786 14.6719 9.80645 14.8974C10.7066 15.7939 11.9273 16.2976 13.2 16.2976C14.4728 16.2976 15.6935 15.7939 16.5936 14.8974L20.1936 11.3105C21.068 10.4085 21.5518 9.20044 21.5409 7.94649C21.5299 6.69254 21.0251 5.49303 20.1352 4.60632C19.2452 3.71961 18.0413 3.21664 16.7828 3.20575C15.5242 3.19485 14.3117 3.6769 13.4064 4.54807L11.6064 6.3415C11.4918 6.45179 11.4004 6.58372 11.3375 6.72959C11.2746 6.87546 11.2415 7.03235 11.2401 7.1911C11.2388 7.34986 11.2691 7.5073 11.3295 7.65423C11.3898 7.80117 11.4789 7.93466 11.5916 8.04692C11.7042 8.15918 11.8382 8.24796 11.9857 8.30808C12.1332 8.3682 12.2912 8.39845 12.4505 8.39707C12.6099 8.39569 12.7673 8.36271 12.9137 8.30004C13.0601 8.23738 13.1926 8.1463 13.3032 8.0321L15.1032 6.23867ZM9.10325 12.2168C9.55331 11.7685 10.1637 11.5167 10.8 11.5167C11.4364 11.5167 12.0468 11.7685 12.4968 12.2168C12.6075 12.331 12.74 12.4221 12.8864 12.4847C13.0328 12.5474 13.1902 12.5804 13.3496 12.5817C13.5089 12.5831 13.6669 12.5529 13.8144 12.4928C13.9619 12.4326 14.0959 12.3439 14.2085 12.2316C14.3212 12.1193 14.4103 11.9858 14.4706 11.8389C14.531 11.692 14.5613 11.5345 14.5599 11.3758C14.5586 11.217 14.5255 11.0601 14.4626 10.9143C14.3997 10.7684 14.3083 10.6365 14.1936 10.5262C13.2935 9.62959 12.0728 9.12592 10.8 9.12592C9.52726 9.12592 8.30658 9.62959 7.40645 10.5262L3.80645 14.113C3.348 14.5542 2.98232 15.0819 2.73076 15.6654C2.4792 16.2489 2.34678 16.8764 2.34125 17.5115C2.33571 18.1465 2.45716 18.7762 2.6985 19.364C2.93985 19.9517 3.29627 20.4857 3.74695 20.9347C4.19764 21.3838 4.73357 21.7389 5.32347 21.9794C5.91337 22.2198 6.54543 22.3408 7.18277 22.3353C7.82011 22.3298 8.44997 22.1979 9.03559 21.9472C9.62121 21.6966 10.1509 21.3322 10.5936 20.8755L12.3936 19.082C12.5083 18.9717 12.5997 18.8398 12.6626 18.6939C12.7255 18.5481 12.7586 18.3912 12.7599 18.2324C12.7613 18.0737 12.731 17.9162 12.6706 17.7693C12.6103 17.6224 12.5212 17.4889 12.4085 17.3766C12.2959 17.2643 12.1619 17.1756 12.0144 17.1154C11.8669 17.0553 11.7089 17.0251 11.5496 17.0265C11.3902 17.0278 11.2328 17.0608 11.0864 17.1235C10.94 17.1861 10.8075 17.2772 10.6968 17.3914L8.89685 19.1849C8.67546 19.4132 8.41063 19.5954 8.11782 19.7207C7.82501 19.8461 7.51008 19.912 7.19141 19.9148C6.87274 19.9175 6.55671 19.857 6.26176 19.7368C5.96681 19.6166 5.69884 19.439 5.4735 19.2145C5.24816 18.99 5.06995 18.723 4.94928 18.4291C4.8286 18.1352 4.76788 17.8204 4.77065 17.5028C4.77342 17.1853 4.83962 16.8716 4.9654 16.5798C5.09119 16.2881 5.27402 16.0242 5.50325 15.8036L9.10325 12.2168Z" fill="#006633"/>
</svg>
