<svg width="20" height="20" viewBox="0 0 20 21" fill="none" xmlns="http://www.w3.org/2000/svg">
<path d="M14.8333 17.5391C14.5 18.5391 13.5833 19.2057 12.5 19.2057H4.16663C2.74996 19.2057 1.66663 18.1224 1.66663 16.7057V15.8724H4.16663H11.8333C12.1666 16.8724 13.0833 17.5391 14.1666 17.5391H14.8333ZM15.8333 2.53906C17.25 2.53906 18.3333 3.6224 18.3333 5.03906V5.8724H16.6666V5.03906C16.6666 4.53906 16.3333 4.20573 15.8333 4.20573C15.3333 4.20573 15 4.53906 15 5.03906V15.8724H14.1666C13.6666 15.8724 13.3333 15.5391 13.3333 15.0391V14.2057H4.16663V5.03906C4.16663 3.6224 5.24996 2.53906 6.66663 2.53906H15.8333ZM6.66663 5.8724V7.53906H12.5V5.8724H6.66663ZM6.66663 9.20573V10.8724H11.6666V9.20573H6.66663Z" fill="white"/>
</svg>
