<svg width="24" height="25" viewBox="0 0 24 25" fill="none" xmlns="http://www.w3.org/2000/svg">
<path fill-rule="evenodd" clip-rule="evenodd" d="M15 3.62769H13V5.62039H15V3.62769ZM23 11.5985H21V13.5912H23V11.5985ZM23 15.5839H21V17.5766H23V15.5839ZM23 19.5693H21V21.562C22 21.562 23 20.5656 23 19.5693ZM21 7.61309H23V9.60579H21V7.61309ZM21 5.62039V3.62769C22 3.62769 23 4.62404 23 5.62039H21ZM1 7.61309H3V9.60579H1V7.61309ZM19 3.62769H17V5.62039H19V3.62769ZM17 19.5693H19V21.562H17V19.5693ZM1 5.62039C1 4.62404 2 3.62769 3 3.62769V5.62039H1ZM9 3.62769H11V5.62039H9V3.62769ZM7 3.62769H5V5.62039H7V3.62769ZM1 11.5985V19.5693C1 20.6653 1.9 21.562 3 21.562H15V11.5985H1ZM5.5 16.371L3 19.5693H13L9.79 15.3049L7.29 18.5132L5.5 16.371Z" fill="#006633"/>
</svg>
