<svg width="20" height="20" viewBox="0 0 20 20" fill="none" xmlns="http://www.w3.org/2000/svg">
<path d="M9.99935 16.6682C11.7675 16.6682 13.4632 15.9658 14.7134 14.7156C15.9636 13.4654 16.666 11.7697 16.666 10.0015C16.666 8.23344 15.9636 6.53774 14.7134 5.2875C13.4632 4.03726 11.7675 3.33488 9.99935 3.33488C8.23124 3.33488 6.53555 4.03726 5.2853 5.2875C4.03506 6.53774 3.33268 8.23344 3.33268 10.0015C3.33268 11.7697 4.03506 13.4654 5.2853 14.7156C6.53555 15.9658 8.23124 16.6682 9.99935 16.6682ZM9.99935 1.66821C11.0937 1.66821 12.1773 1.88376 13.1884 2.30255C14.1994 2.72134 15.1181 3.33517 15.8919 4.10899C16.6657 4.88281 17.2796 5.80147 17.6983 6.81252C18.1171 7.82356 18.3327 8.9072 18.3327 10.0015C18.3327 12.2117 17.4547 14.3313 15.8919 15.8941C14.3291 17.4569 12.2095 18.3349 9.99935 18.3349C5.39102 18.3349 1.66602 14.5849 1.66602 10.0015C1.66602 7.79141 2.54399 5.67179 4.10679 4.10899C5.6696 2.54619 7.78921 1.66821 9.99935 1.66821ZM10.416 5.83488V10.2099L14.166 12.4349L13.541 13.4599L9.16602 10.8349V5.83488H10.416Z" fill="white"/>
</svg>
