<svg width="16" height="16" viewBox="0 0 16 16" fill="none" xmlns="http://www.w3.org/2000/svg">
<g clip-path="url(#clip0_1124_1784)">
<path d="M7.99992 1.3335C4.31992 1.3335 1.33325 4.32016 1.33325 8.00016C1.33325 11.6802 4.31992 14.6668 7.99992 14.6668C11.6799 14.6668 14.6666 11.6802 14.6666 8.00016C14.6666 4.32016 11.6799 1.3335 7.99992 1.3335ZM8.66659 3.5335L9.56659 2.90016C10.7799 3.2735 11.8133 4.0735 12.4866 5.12683L12.2266 6.02016L11.3266 6.32683L8.66659 4.46683V3.5335ZM6.43325 2.90016L7.33325 3.5335V4.46683L4.67325 6.32683L3.77325 6.02016L3.51325 5.12683C4.18659 4.08016 5.21992 3.28016 6.43325 2.90016ZM4.71992 11.4068L3.95992 11.4735C3.15325 10.5402 2.66659 9.32683 2.66659 8.00016C2.66659 7.92016 2.67325 7.84683 2.67992 7.76683L3.34659 7.28016L4.26659 7.60016L5.23992 10.4935L4.71992 11.4068ZM9.66659 13.0602C9.13992 13.2335 8.57992 13.3335 7.99992 13.3335C7.41992 13.3335 6.85992 13.2335 6.33325 13.0602L5.87325 12.0668L6.29992 11.3335H9.70659L10.1333 12.0735L9.66659 13.0602ZM9.51325 10.0002H6.48659L5.58659 7.32016L7.99992 5.62683L10.4199 7.32016L9.51325 10.0002ZM12.0399 11.4735L11.2799 11.4068L10.7533 10.4935L11.7266 7.60016L12.6533 7.28683L13.3199 7.7735C13.3266 7.84683 13.3333 7.92016 13.3333 8.00016C13.3333 9.32683 12.8466 10.5402 12.0399 11.4735Z" fill="black"/>
</g>
<defs>
<clipPath id="clip0_1124_1784">
<rect width="16" height="16" fill="white" transform="translate(0 0.000244141)"/>
</clipPath>
</defs>
</svg>
