<svg width="272" height="32" viewBox="0 0 272 32" fill="none" xmlns="http://www.w3.org/2000/svg">
<g clip-path="url(#clip0_102_3163)">
<g clip-path="url(#clip1_102_3163)">
<rect width="615" height="32" fill="white"/>
<path d="M134.477 -0.0527344L115.227 32.1877H153.727L134.477 -0.0527344Z" fill="white"/>
<path d="M288.363 -0.0527344L269.114 32.1877H307.613L288.363 -0.0527344Z" fill="white"/>
<path d="M18.9793 -0.0527344L38.2291 32.1877H-0.270508L18.9793 -0.0527344Z" fill="#1A1A1A"/>
<path d="M172.976 -0.0527344L192.226 32.1877H153.727L172.976 -0.0527344Z" fill="#1A1A1A"/>
<path d="M153.729 32.1885L134.479 -0.0519867L172.979 -0.0519867L153.729 32.1885Z" fill="black"/>
<path d="M0.250208 32.1885L-18.9996 -0.0519867L19.5 -0.0519867L0.250208 32.1885Z" fill="black"/>
<path d="M76.7277 32.1885L57.478 -0.0519867L95.9775 -0.0519867L76.7277 32.1885Z" fill="#4C9D34"/>
<path d="M230.726 32.1885L211.476 -0.0519867L249.976 -0.0519867L230.726 32.1885Z" fill="#4C9D34"/>
<path d="M115.227 32.1885L134.477 -0.0519867L95.9775 -0.0519867L115.227 32.1885Z" fill="#E5E5E5"/>
<path d="M269.114 32.1885L288.364 -0.0519867L249.864 -0.0519867L269.114 32.1885Z" fill="#E5E5E5"/>
<path d="M38.2287 32.1885L18.9789 -0.0519867L57.4785 -0.0519867L38.2287 32.1885Z" fill="#1A7547"/>
<path d="M192.227 32.1885L172.977 -0.0519867L211.477 -0.0519867L192.227 32.1885Z" fill="#1A7547"/>
<path d="M95.9793 -0.0527344L115.229 32.1877H76.7295L95.9793 -0.0527344Z" fill="#55AE3A"/>
<path d="M249.976 -0.0527344L269.226 32.1877H230.727L249.976 -0.0527344Z" fill="#55AE3A"/>
<path d="M57.4793 -0.0527344L76.7291 32.1877H38.2295L57.4793 -0.0527344Z" fill="#006633"/>
<path d="M211.478 -0.0527344L230.728 32.1877H192.229L211.478 -0.0527344Z" fill="#006633"/>
<rect width="615" height="32" fill="#006633" fill-opacity="0.8"/>
</g>
</g>
<path d="M88 0L69 32H184.5L203 0H88Z" fill="white"/>
<path fill-rule="evenodd" clip-rule="evenodd" d="M102 8C102.265 8 102.52 8.10536 102.707 8.29289C102.895 8.48043 103 8.73478 103 9V10H104C104.265 10 104.52 10.1054 104.707 10.2929C104.895 10.4804 105 10.7348 105 11C105 11.2652 104.895 11.5196 104.707 11.7071C104.52 11.8946 104.265 12 104 12H103V13C103 13.2652 102.895 13.5196 102.707 13.7071C102.52 13.8946 102.265 14 102 14C101.735 14 101.48 13.8946 101.293 13.7071C101.105 13.5196 101 13.2652 101 13V12H100C99.7348 12 99.4804 11.8946 99.2929 11.7071C99.1054 11.5196 99 11.2652 99 11C99 10.7348 99.1054 10.4804 99.2929 10.2929C99.4804 10.1054 99.7348 10 100 10H101V9C101 8.73478 101.105 8.48043 101.293 8.29289C101.48 8.10536 101.735 8 102 8ZM102 18C102.265 18 102.52 18.1054 102.707 18.2929C102.895 18.4804 103 18.7348 103 19V20H104C104.265 20 104.52 20.1054 104.707 20.2929C104.895 20.4804 105 20.7348 105 21C105 21.2652 104.895 21.5196 104.707 21.7071C104.52 21.8946 104.265 22 104 22H103V23C103 23.2652 102.895 23.5196 102.707 23.7071C102.52 23.8946 102.265 24 102 24C101.735 24 101.48 23.8946 101.293 23.7071C101.105 23.5196 101 23.2652 101 23V22H100C99.7348 22 99.4804 21.8946 99.2929 21.7071C99.1054 21.5196 99 21.2652 99 21C99 20.7348 99.1054 20.4804 99.2929 20.2929C99.4804 20.1054 99.7348 20 100 20H101V19C101 18.7348 101.105 18.4804 101.293 18.2929C101.48 18.1054 101.735 18 102 18ZM109 8C109.221 7.99993 109.435 8.07286 109.61 8.20744C109.785 8.34201 109.911 8.53066 109.967 8.744L111.146 13.2L114.5 15.134C114.652 15.2218 114.778 15.348 114.866 15.5C114.954 15.652 115 15.8245 115 16C115 16.1755 114.954 16.348 114.866 16.5C114.778 16.652 114.652 16.7782 114.5 16.866L111.146 18.801L109.966 23.256C109.909 23.4691 109.784 23.6576 109.609 23.792C109.434 23.9264 109.22 23.9993 109 23.9993C108.779 23.9993 108.565 23.9264 108.39 23.792C108.215 23.6576 108.09 23.4691 108.033 23.256L106.854 18.8L103.5 16.866C103.348 16.7782 103.222 16.652 103.134 16.5C103.046 16.348 103 16.1755 103 16C103 15.8245 103.046 15.652 103.134 15.5C103.222 15.348 103.348 15.2218 103.5 15.134L106.854 13.199L108.034 8.744C108.09 8.53083 108.216 8.3423 108.39 8.20774C108.565 8.07318 108.779 8.00015 109 8Z" fill="black"/>
<path d="M126.695 11.1328L122.93 21.5H121.391L125.727 10.125H126.719L126.695 11.1328ZM129.852 21.5L126.078 11.1328L126.055 10.125H127.047L131.398 21.5H129.852ZM129.656 17.2891V18.5234H123.266V17.2891H129.656ZM132.742 13.0469H134.195V22.5078C134.195 23.0234 134.112 23.4609 133.945 23.8203C133.784 24.1797 133.539 24.4505 133.211 24.6328C132.888 24.8203 132.479 24.9141 131.984 24.9141C131.854 24.9141 131.703 24.901 131.531 24.875C131.354 24.849 131.206 24.8177 131.086 24.7812L131.094 23.6172C131.193 23.638 131.305 23.6536 131.43 23.6641C131.555 23.6797 131.664 23.6875 131.758 23.6875C131.971 23.6875 132.151 23.6484 132.297 23.5703C132.443 23.4922 132.552 23.3672 132.625 23.1953C132.703 23.0234 132.742 22.7943 132.742 22.5078V13.0469ZM132.594 10.8047C132.594 10.5703 132.667 10.3724 132.812 10.2109C132.958 10.0495 133.169 9.96875 133.445 9.96875C133.727 9.96875 133.94 10.0495 134.086 10.2109C134.232 10.3724 134.305 10.5703 134.305 10.8047C134.305 11.0286 134.232 11.2214 134.086 11.3828C133.94 11.5391 133.727 11.6172 133.445 11.6172C133.169 11.6172 132.958 11.5391 132.812 11.3828C132.667 11.2214 132.594 11.0286 132.594 10.8047ZM141.516 20.0547V15.7031C141.516 15.3698 141.448 15.0807 141.312 14.8359C141.182 14.5859 140.984 14.3932 140.719 14.2578C140.453 14.1224 140.125 14.0547 139.734 14.0547C139.37 14.0547 139.049 14.1172 138.773 14.2422C138.503 14.3672 138.289 14.5312 138.133 14.7344C137.982 14.9375 137.906 15.1562 137.906 15.3906H136.461C136.461 15.0885 136.539 14.7891 136.695 14.4922C136.852 14.1953 137.076 13.9271 137.367 13.6875C137.664 13.4427 138.018 13.25 138.43 13.1094C138.846 12.9635 139.31 12.8906 139.82 12.8906C140.435 12.8906 140.977 12.9948 141.445 13.2031C141.919 13.4115 142.289 13.7266 142.555 14.1484C142.826 14.5651 142.961 15.0885 142.961 15.7188V19.6562C142.961 19.9375 142.984 20.237 143.031 20.5547C143.083 20.8724 143.159 21.1458 143.258 21.375V21.5H141.75C141.677 21.3333 141.62 21.112 141.578 20.8359C141.536 20.5547 141.516 20.2943 141.516 20.0547ZM141.766 16.375L141.781 17.3906H140.32C139.909 17.3906 139.542 17.4245 139.219 17.4922C138.896 17.5547 138.625 17.651 138.406 17.7812C138.188 17.9115 138.021 18.0755 137.906 18.2734C137.792 18.4661 137.734 18.6927 137.734 18.9531C137.734 19.2188 137.794 19.4609 137.914 19.6797C138.034 19.8984 138.214 20.0729 138.453 20.2031C138.698 20.3281 138.997 20.3906 139.352 20.3906C139.794 20.3906 140.185 20.2969 140.523 20.1094C140.862 19.9219 141.13 19.6927 141.328 19.4219C141.531 19.151 141.641 18.888 141.656 18.6328L142.273 19.3281C142.237 19.5469 142.138 19.7891 141.977 20.0547C141.815 20.3203 141.599 20.5755 141.328 20.8203C141.062 21.0599 140.745 21.2604 140.375 21.4219C140.01 21.5781 139.599 21.6562 139.141 21.6562C138.568 21.6562 138.065 21.5443 137.633 21.3203C137.206 21.0964 136.872 20.7969 136.633 20.4219C136.398 20.0417 136.281 19.6172 136.281 19.1484C136.281 18.6953 136.37 18.2969 136.547 17.9531C136.724 17.6042 136.979 17.3151 137.312 17.0859C137.646 16.8516 138.047 16.6745 138.516 16.5547C138.984 16.4349 139.508 16.375 140.086 16.375H141.766ZM139.18 11.7969L140.695 9.5H142.438L140.344 11.7969H139.18ZM146.68 14.8516V21.5H145.234V13.0469H146.602L146.68 14.8516ZM146.336 16.9531L145.734 16.9297C145.74 16.3516 145.826 15.8177 145.992 15.3281C146.159 14.8333 146.393 14.4036 146.695 14.0391C146.997 13.6745 147.357 13.3932 147.773 13.1953C148.195 12.9922 148.661 12.8906 149.172 12.8906C149.589 12.8906 149.964 12.9479 150.297 13.0625C150.63 13.1719 150.914 13.349 151.148 13.5938C151.388 13.8385 151.57 14.1562 151.695 14.5469C151.82 14.9323 151.883 15.4036 151.883 15.9609V21.5H150.43V15.9453C150.43 15.5026 150.365 15.1484 150.234 14.8828C150.104 14.612 149.914 14.4167 149.664 14.2969C149.414 14.1719 149.107 14.1094 148.742 14.1094C148.383 14.1094 148.055 14.1849 147.758 14.3359C147.466 14.487 147.214 14.6953 147 14.9609C146.792 15.2266 146.628 15.5312 146.508 15.875C146.393 16.2135 146.336 16.5729 146.336 16.9531ZM155.648 9.5V21.5H154.195V9.5H155.648ZM162.953 20.0547V15.7031C162.953 15.3698 162.885 15.0807 162.75 14.8359C162.62 14.5859 162.422 14.3932 162.156 14.2578C161.891 14.1224 161.562 14.0547 161.172 14.0547C160.807 14.0547 160.487 14.1172 160.211 14.2422C159.94 14.3672 159.727 14.5312 159.57 14.7344C159.419 14.9375 159.344 15.1562 159.344 15.3906H157.898C157.898 15.0885 157.977 14.7891 158.133 14.4922C158.289 14.1953 158.513 13.9271 158.805 13.6875C159.102 13.4427 159.456 13.25 159.867 13.1094C160.284 12.9635 160.747 12.8906 161.258 12.8906C161.872 12.8906 162.414 12.9948 162.883 13.2031C163.357 13.4115 163.727 13.7266 163.992 14.1484C164.263 14.5651 164.398 15.0885 164.398 15.7188V19.6562C164.398 19.9375 164.422 20.237 164.469 20.5547C164.521 20.8724 164.596 21.1458 164.695 21.375V21.5H163.188C163.115 21.3333 163.057 21.112 163.016 20.8359C162.974 20.5547 162.953 20.2943 162.953 20.0547ZM163.203 16.375L163.219 17.3906H161.758C161.346 17.3906 160.979 17.4245 160.656 17.4922C160.333 17.5547 160.062 17.651 159.844 17.7812C159.625 17.9115 159.458 18.0755 159.344 18.2734C159.229 18.4661 159.172 18.6927 159.172 18.9531C159.172 19.2188 159.232 19.4609 159.352 19.6797C159.471 19.8984 159.651 20.0729 159.891 20.2031C160.135 20.3281 160.435 20.3906 160.789 20.3906C161.232 20.3906 161.622 20.2969 161.961 20.1094C162.299 19.9219 162.568 19.6927 162.766 19.4219C162.969 19.151 163.078 18.888 163.094 18.6328L163.711 19.3281C163.674 19.5469 163.576 19.7891 163.414 20.0547C163.253 20.3203 163.036 20.5755 162.766 20.8203C162.5 21.0599 162.182 21.2604 161.812 21.4219C161.448 21.5781 161.036 21.6562 160.578 21.6562C160.005 21.6562 159.503 21.5443 159.07 21.3203C158.643 21.0964 158.31 20.7969 158.07 20.4219C157.836 20.0417 157.719 19.6172 157.719 19.1484C157.719 18.6953 157.807 18.2969 157.984 17.9531C158.161 17.6042 158.417 17.3151 158.75 17.0859C159.083 16.8516 159.484 16.6745 159.953 16.5547C160.422 16.4349 160.945 16.375 161.523 16.375H163.203ZM160.617 11.7969L162.133 9.5H163.875L161.781 11.7969H160.617ZM171.594 19.2578C171.594 19.0495 171.547 18.8568 171.453 18.6797C171.365 18.4974 171.18 18.3333 170.898 18.1875C170.622 18.0365 170.206 17.9062 169.648 17.7969C169.18 17.6979 168.755 17.5807 168.375 17.4453C168 17.3099 167.68 17.1458 167.414 16.9531C167.154 16.7604 166.953 16.5339 166.812 16.2734C166.672 16.013 166.602 15.7083 166.602 15.3594C166.602 15.026 166.674 14.7109 166.82 14.4141C166.971 14.1172 167.182 13.8542 167.453 13.625C167.729 13.3958 168.06 13.2161 168.445 13.0859C168.831 12.9557 169.26 12.8906 169.734 12.8906C170.411 12.8906 170.99 13.0104 171.469 13.25C171.948 13.4896 172.315 13.8099 172.57 14.2109C172.826 14.6068 172.953 15.0469 172.953 15.5312H171.508C171.508 15.2969 171.438 15.0703 171.297 14.8516C171.161 14.6276 170.961 14.4427 170.695 14.2969C170.435 14.151 170.115 14.0781 169.734 14.0781C169.333 14.0781 169.008 14.1406 168.758 14.2656C168.513 14.3854 168.333 14.5391 168.219 14.7266C168.109 14.9141 168.055 15.112 168.055 15.3203C168.055 15.4766 168.081 15.6172 168.133 15.7422C168.19 15.862 168.289 15.974 168.43 16.0781C168.57 16.1771 168.768 16.2708 169.023 16.3594C169.279 16.4479 169.604 16.5365 170 16.625C170.693 16.7812 171.263 16.9688 171.711 17.1875C172.159 17.4062 172.492 17.6745 172.711 17.9922C172.93 18.3099 173.039 18.6953 173.039 19.1484C173.039 19.5182 172.961 19.8568 172.805 20.1641C172.654 20.4714 172.432 20.737 172.141 20.9609C171.854 21.1797 171.51 21.3516 171.109 21.4766C170.714 21.5964 170.268 21.6562 169.773 21.6562C169.029 21.6562 168.398 21.5234 167.883 21.2578C167.367 20.9922 166.977 20.6484 166.711 20.2266C166.445 19.8047 166.312 19.3594 166.312 18.8906H167.766C167.786 19.2865 167.901 19.6016 168.109 19.8359C168.318 20.0651 168.573 20.2292 168.875 20.3281C169.177 20.4219 169.477 20.4688 169.773 20.4688C170.169 20.4688 170.5 20.4167 170.766 20.3125C171.036 20.2083 171.242 20.0651 171.383 19.8828C171.523 19.7005 171.594 19.4922 171.594 19.2578Z" fill="black"/>
<defs>
<clipPath id="clip0_102_3163">
<rect width="272" height="32" fill="white"/>
</clipPath>
<clipPath id="clip1_102_3163">
<rect width="615" height="32" fill="white"/>
</clipPath>
</defs>
</svg>
