<svg width="22" height="29" viewBox="0 0 22 29" fill="none" xmlns="http://www.w3.org/2000/svg">
<path fill-rule="evenodd" clip-rule="evenodd" d="M0.0129197 0.259277H9.99377H10.2429V0.262992C14.6406 0.394321 18.1653 3.991 18.1653 8.40867C18.1653 10.2844 17.5299 12.012 16.462 13.3893C19.3358 14.652 21.342 17.5176 21.342 20.8506C21.342 25.1872 17.9455 28.7327 13.6608 28.9855V28.9999H13.2058L13.1705 29L13.1352 28.9999H0V22.779H13.419V22.7778C14.2515 22.7454 14.9165 22.0621 14.9165 21.2238C14.9165 20.3856 14.2515 19.7022 13.419 19.6698V19.6686H5.08435C5.08435 19.6686 5.08435 19.6685 5.08435 19.6685H1.3723V9.62176H1.91218C1.91063 9.61141 1.9091 9.60105 1.90759 9.59068H10.2108H10.2118C11.073 9.59068 11.7712 8.89438 11.7712 8.03545C11.7712 7.17652 11.073 6.48022 10.2118 6.48022H10.2108H2.05241L2.05241 6.48019H0.0129197V0.259277Z" fill="white"/>
<path d="M1.2321 7.88L12.928 14.6143L1.2321 21.3487L1.2321 7.88Z" fill="#55AE3A"/>
</svg>
