<svg width="33" height="32" viewBox="0 0 33 32" fill="none" xmlns="http://www.w3.org/2000/svg">
<g clip-path="url(#clip0_901_1496)">
<path d="M29.9337 18.9526V17.3525H18.7564C17.3178 17.3525 16.036 18.0327 15.2129 19.0875C14.3897 18.0328 13.1079 17.3525 11.6694 17.3525H0.492188V18.9526H10.5401V20.8537H0.492188V22.4537H2.39325H14.2624H16.1635H28.0326H29.9337V20.8537H19.8858V18.9526H29.9337Z" fill="white"/>
<path d="M1.11346 24.3545H0.491652H-0.787598V26.8039H14.2618V24.9028V24.3545H1.11346Z" fill="white"/>
<path d="M29.9338 24.3545H29.312H16.1636V24.9028V26.8039H31.2131V24.3545H29.9338Z" fill="white"/>
<path d="M17.3713 5.19604H15.4702V11.7529H17.3713V5.19604Z" fill="white"/>
<path d="M4.47315 9.75073L3.12891 11.095L7.76518 15.7312L9.10943 14.387L4.47315 9.75073Z" fill="white"/>
<path d="M22.3722 6.19126L19.8628 12.2493L21.6192 12.9768L24.1286 6.91882L22.3722 6.19126Z" fill="white"/>
<path d="M10.4689 6.19114L8.7124 6.9187L11.2218 12.9767L12.9782 12.2492L10.4689 6.19114Z" fill="white"/>
<path d="M28.3682 9.7519L23.7319 14.3882L25.0762 15.7324L29.7125 11.0961L28.3682 9.7519Z" fill="white"/>
</g>
<defs>
<clipPath id="clip0_901_1496">
<rect width="32" height="32" fill="white" transform="translate(0.42041)"/>
</clipPath>
</defs>
</svg>
