<!DOCTYPE svg PUBLIC "-//W3C//DTD SVG 1.1//EN" "http://www.w3.org/Graphics/SVG/1.1/DTD/svg11.dtd">
<!-- Uploaded to: SVG Repo, www.svgrepo.com, Transformed by: SVG Repo Mixer Tools -->
<svg fill="#fff" version="1.1" id="Layer_1" xmlns="http://www.w3.org/2000/svg" xmlns:xlink="http://www.w3.org/1999/xlink" viewBox="0 0 512 512" xml:space="preserve" width="800px" height="800px" stroke="#fff">
<g id="SVGRepo_bgCarrier" stroke-width="0"/>
<g id="SVGRepo_tracerCarrier" stroke-linecap="round" stroke-linejoin="round"/>
<g id="SVGRepo_iconCarrier"> <g> <g> <path d="M491.532,303.238v-25.601H312.695c-23.017,0-43.526,10.883-56.696,27.759c-13.17-16.875-33.679-27.759-56.696-27.759 H20.468v25.601h160.767v30.417H20.468v25.601h30.417h189.907h30.417h189.906h30.417v-25.601H330.766v-30.417H491.532z"/> </g> </g> <g> <g> <polygon points="30.417,389.674 20.468,389.674 0,389.674 0,428.864 240.791,428.864 240.791,398.447 240.791,389.674 "/> </g> </g> <g> <g> <polygon points="491.532,389.674 481.583,389.674 271.208,389.674 271.208,398.447 271.208,428.864 512,428.864 512,389.674 "/> </g> </g> <g> <g> <rect x="240.793" y="83.136" width="30.417" height="104.909"/> </g> </g> <g> <g> <rect x="75.969" y="151.403" transform="matrix(0.7071 -0.7071 0.7071 0.7071 -117.4438 124.1806)" width="30.417" height="104.908"/> </g> </g> <g> <g> <rect x="292.752" y="138.139" transform="matrix(0.3827 -0.9239 0.9239 0.3827 71.4256 413.5925)" width="104.912" height="30.418"/> </g> </g> <g> <g> <rect x="151.587" y="100.889" transform="matrix(0.9239 -0.3827 0.3827 0.9239 -45.9866 75.5046)" width="30.418" height="104.912"/> </g> </g> <g> <g> <rect x="368.374" y="188.656" transform="matrix(0.7071 -0.7071 0.7071 0.7071 -20.8966 357.2806)" width="104.908" height="30.417"/> </g> </g> </g>
</svg>