<svg width="195" height="32" viewBox="0 0 195 32" fill="none" xmlns="http://www.w3.org/2000/svg">
<path fill-rule="evenodd" clip-rule="evenodd" d="M0.0129197 3.25928H9.99377H10.2429V3.26299C14.6406 3.39432 18.1653 6.991 18.1653 11.4087C18.1653 13.2844 17.5299 15.012 16.462 16.3893C19.3358 17.652 21.342 20.5176 21.342 23.8506C21.342 28.1872 17.9455 31.7327 13.6608 31.9855V31.9999H13.2058L13.1705 32L13.1352 31.9999H0V25.779H13.419V25.7778C14.2515 25.7454 14.9165 25.0621 14.9165 24.2238C14.9165 23.3856 14.2515 22.7022 13.419 22.6698V22.6686H5.08435C5.08435 22.6686 5.08435 22.6685 5.08435 22.6685H1.3723V12.6218H1.91218C1.91063 12.6114 1.9091 12.601 1.90759 12.5907H10.2108H10.2118C11.073 12.5907 11.7712 11.8944 11.7712 11.0355C11.7712 10.1765 11.073 9.48022 10.2118 9.48022H10.2108H2.05241L2.05241 9.48019H0.0129197V3.25928Z" fill="white"/>
<path d="M1.2321 10.88L12.928 17.6143L1.2321 24.3487L1.2321 10.88Z" fill="#55AE3A"/>
<path d="M29.7521 6.29432C29.1196 6.29432 28.5853 6.06484 28.1491 5.60588C27.7348 5.14692 27.5276 4.60053 27.5276 3.96673V3.01603C27.5276 2.36037 27.7348 1.81399 28.1491 1.37688C28.5635 0.917921 29.0978 0.68844 29.7521 0.68844H30.7335C31.3877 0.68844 31.9221 0.917921 32.3364 1.37688C32.7508 1.81399 32.958 2.36037 32.958 3.01603V3.96673C32.958 4.60053 32.7508 5.14692 32.3364 5.60588C31.9221 6.06484 31.3877 6.29432 30.7335 6.29432H29.7521ZM37.0471 6.29432C36.4147 6.29432 35.8803 6.06484 35.4442 5.60588C35.0298 5.14692 34.8226 4.60053 34.8226 3.96673V3.01603C34.8226 2.36037 35.0298 1.81399 35.4442 1.37688C35.8585 0.917921 36.3929 0.68844 37.0471 0.68844H38.0285C38.6828 0.68844 39.2171 0.917921 39.6315 1.37688C40.0458 1.81399 40.253 2.36037 40.253 3.01603V3.96673C40.253 4.60053 40.0458 5.14692 39.6315 5.60588C39.2171 6.06484 38.6828 6.29432 38.0285 6.29432H37.0471ZM33.8412 31.111C31.704 31.111 29.8284 30.7722 28.2146 30.0947C26.6007 29.3953 25.3467 28.4009 24.4526 27.1115C23.5584 25.8001 23.1113 24.2484 23.1113 22.4563V10.1955C23.1113 9.56168 23.2531 9.09179 23.5366 8.78582C23.8419 8.47985 24.3544 8.32686 25.0741 8.32686H28.967C29.7085 8.32686 30.221 8.47985 30.5045 8.78582C30.8098 9.06994 30.9625 9.53982 30.9625 10.1955V22.5546C30.9625 23.5818 31.2133 24.3468 31.7149 24.8494C32.2383 25.3521 32.9471 25.6034 33.8412 25.6034C34.7354 25.6034 35.4333 25.3521 35.9349 24.8494C36.4583 24.3468 36.72 23.5818 36.72 22.5546V10.1955C36.72 9.56168 36.8617 9.09179 37.1453 8.78582C37.4506 8.47985 37.9631 8.32686 38.6828 8.32686H42.5756C43.3171 8.32686 43.8296 8.47985 44.1131 8.78582C44.4185 9.06994 44.5711 9.53982 44.5711 10.1955V22.4563C44.5711 24.2484 44.1241 25.8001 43.2299 27.1115C42.3357 28.4009 41.0817 29.3953 39.4679 30.0947C37.854 30.7722 35.9785 31.111 33.8412 31.111Z" fill="white"/>
<path d="M47.673 30.6192C46.9533 30.6192 46.4408 30.4662 46.1355 30.1603C45.852 29.8543 45.7102 29.3844 45.7102 28.7506V10.1627C45.7102 9.5289 45.852 9.06994 46.1355 8.78582C46.4408 8.47985 46.9642 8.32686 47.7057 8.32686H50.8135C51.2714 8.32686 51.6204 8.39242 51.8603 8.52355C52.122 8.63283 52.3728 8.86231 52.6127 9.212L58.5338 18.0306V10.1955C58.5338 9.56168 58.6755 9.09179 58.959 8.78582C59.2643 8.47985 59.7769 8.32686 60.4965 8.32686H64.3894C65.1309 8.32686 65.6434 8.47985 65.9269 8.78582C66.2322 9.06994 66.3849 9.53982 66.3849 10.1955V28.7834C66.3849 29.4172 66.2322 29.8871 65.9269 30.1931C65.6434 30.4772 65.1309 30.6192 64.3894 30.6192H61.2817C60.8237 30.6192 60.4638 30.5646 60.2021 30.4553C59.9622 30.3242 59.7223 30.0838 59.4824 29.7341L53.5614 20.9155V28.7834C53.5614 29.4172 53.4087 29.8871 53.1034 30.1931C52.8199 30.4772 52.3074 30.6192 51.5659 30.6192H47.673Z" fill="white"/>
<path d="M75.8438 30.6192C75.1242 30.6192 74.6117 30.4662 74.3063 30.1603C74.0228 29.8543 73.8811 29.3844 73.8811 28.7506V13.9H69.1704C68.4725 13.9 67.9927 13.7579 67.731 13.4738C67.4911 13.1678 67.3712 12.687 67.3712 12.0313V10.1955C67.3712 9.53982 67.4911 9.06994 67.731 8.78582C67.9927 8.47985 68.4725 8.32686 69.1704 8.32686H86.4429C87.1408 8.32686 87.6097 8.47985 87.8496 8.78582C88.1113 9.06994 88.2421 9.53982 88.2421 10.1955V12.0313C88.2421 12.687 88.1113 13.1678 87.8496 13.4738C87.6097 13.7579 87.1408 13.9 86.4429 13.9H81.7322V28.7506C81.7322 29.3844 81.5795 29.8543 81.2742 30.1603C80.9907 30.4662 80.4782 30.6192 79.7367 30.6192H75.8438Z" fill="white"/>
<path d="M91.184 30.6192C90.4643 30.6192 89.9518 30.4662 89.6465 30.1603C89.363 29.8543 89.2212 29.3844 89.2212 28.7506V10.1955C89.2212 9.56168 89.363 9.09179 89.6465 8.78582C89.9518 8.47985 90.4643 8.32686 91.184 8.32686H104.727C105.425 8.32686 105.894 8.47985 106.134 8.78582C106.396 9.06994 106.526 9.53982 106.526 10.1955V12.0313C106.526 12.687 106.396 13.1678 106.134 13.4738C105.894 13.7579 105.425 13.9 104.727 13.9H97.0724V16.7193H101.783C102.481 16.7193 102.95 16.8723 103.19 17.1782C103.451 17.4624 103.582 17.9322 103.582 18.5879V20.3582C103.582 21.0138 103.451 21.4947 103.19 21.8006C102.95 22.0848 102.481 22.2268 101.783 22.2268H97.0724V25.0461H104.695C105.392 25.0461 105.861 25.1991 106.101 25.5051C106.363 25.7892 106.494 26.2591 106.494 26.9148V28.7506C106.494 29.4063 106.363 29.8871 106.101 30.1931C105.861 30.4772 105.392 30.6192 104.695 30.6192H91.184Z" fill="white"/>
<path d="M115.17 30.6192C114.45 30.6192 113.938 30.4662 113.632 30.1603C113.349 29.8543 113.207 29.3844 113.207 28.7506V13.9H108.496C107.799 13.9 107.319 13.7579 107.057 13.4738C106.817 13.1678 106.697 12.687 106.697 12.0313V10.1955C106.697 9.53982 106.817 9.06994 107.057 8.78582C107.319 8.47985 107.799 8.32686 108.496 8.32686H125.769C126.467 8.32686 126.936 8.47985 127.176 8.78582C127.437 9.06994 127.568 9.53982 127.568 10.1955V12.0313C127.568 12.687 127.437 13.1678 127.176 13.4738C126.936 13.7579 126.467 13.9 125.769 13.9H121.058V28.7506C121.058 29.3844 120.906 29.8543 120.6 30.1603C120.317 30.4662 119.804 30.6192 119.063 30.6192H115.17Z" fill="white"/>
<path d="M133.716 6.55658C132.822 6.55658 132.375 6.25061 132.375 5.63866C132.375 5.44196 132.418 5.25619 132.506 5.08135L134.37 1.27853C134.545 0.906992 134.686 0.644729 134.795 0.491743C134.904 0.338756 135.068 0.218551 135.286 0.13113C135.526 0.04371 135.875 0 136.333 0H140.357C140.815 0 141.185 0.0874206 141.469 0.262262C141.752 0.415249 141.894 0.64473 141.894 0.950704C141.894 1.19111 141.785 1.4643 141.567 1.77028L138.983 5.31083C138.699 5.70423 138.481 5.97742 138.328 6.1304C138.176 6.26153 137.969 6.37081 137.707 6.45823C137.445 6.5238 137.064 6.55658 136.562 6.55658H133.716ZM142.319 6.55658C141.425 6.55658 140.978 6.25061 140.978 5.63866C140.978 5.44196 141.022 5.25619 141.109 5.08135L142.974 1.27853C143.148 0.906992 143.29 0.644729 143.399 0.491743C143.508 0.338756 143.672 0.218551 143.89 0.13113C144.13 0.04371 144.479 0 144.937 0H148.96C149.418 0 149.789 0.0874206 150.072 0.262262C150.356 0.415249 150.498 0.64473 150.498 0.950704C150.498 1.19111 150.389 1.4643 150.171 1.77028L147.586 5.31083C147.303 5.70423 147.085 5.97742 146.932 6.1304C146.779 6.26153 146.572 6.37081 146.31 6.45823C146.049 6.5238 145.667 6.55658 145.165 6.55658H142.319ZM139.735 31.111C135.853 31.111 132.909 30.1056 130.903 28.0949C128.896 26.0624 127.893 23.1884 127.893 19.473C127.893 15.7576 128.896 12.8946 130.903 10.8839C132.909 8.85138 135.853 7.83511 139.735 7.83511C143.617 7.83511 146.561 8.85138 148.568 10.8839C150.574 12.8946 151.577 15.7576 151.577 19.473C151.577 23.1884 150.574 26.0624 148.568 28.0949C146.561 30.1056 143.617 31.111 139.735 31.111ZM139.735 25.6034C141.153 25.6034 142.178 25.1008 142.81 24.0954C143.443 23.0682 143.759 21.5274 143.759 19.473C143.759 17.3968 143.443 15.856 142.81 14.8507C142.178 13.8453 141.153 13.3426 139.735 13.3426C138.318 13.3426 137.293 13.8453 136.66 14.8507C136.028 15.856 135.711 17.3968 135.711 19.473C135.711 21.5274 136.028 23.0682 136.66 24.0954C137.293 25.1008 138.318 25.6034 139.735 25.6034Z" fill="white"/>
<path d="M153.517 30.6192C153.177 30.6192 152.896 30.5012 152.673 30.2652C152.464 30.016 152.359 29.7275 152.359 29.3997V28.908C152.359 28.5539 152.464 28.2654 152.673 28.0425C152.896 27.8065 153.177 27.6884 153.517 27.6884H154.028C154.368 27.6884 154.643 27.8065 154.852 28.0425C155.074 28.2654 155.186 28.5539 155.186 28.908V29.3997C155.186 29.7407 155.074 30.0291 154.852 30.2652C154.643 30.5012 154.368 30.6192 154.028 30.6192H153.517Z" fill="white"/>
<path d="M161.601 30.9143C159.716 30.9143 158.27 30.4881 157.263 29.6357C156.268 28.7703 155.771 27.5245 155.771 25.8985C155.771 24.8888 156.007 24.0102 156.478 23.2628C156.949 22.5022 157.629 21.9187 158.519 21.5121C159.409 21.0925 160.469 20.8827 161.699 20.8827C162.615 20.8827 163.393 20.9745 164.035 21.1581C164.676 21.3417 165.245 21.6039 165.742 21.9449C165.899 22.0629 165.978 22.194 165.978 22.3383C165.978 22.4563 165.919 22.6202 165.801 22.83L164.859 24.4626C164.754 24.6593 164.623 24.7577 164.466 24.7577C164.349 24.7577 164.205 24.6986 164.035 24.5806C163.72 24.3708 163.426 24.22 163.151 24.1282C162.89 24.0364 162.556 23.9905 162.15 23.9905C161.653 23.9905 161.247 24.161 160.933 24.5019C160.619 24.8429 160.462 25.3084 160.462 25.8985C160.462 26.5017 160.619 26.9672 160.933 27.295C161.26 27.6229 161.692 27.7868 162.229 27.7868C162.582 27.7868 162.909 27.7343 163.21 27.6294C163.511 27.5245 163.832 27.3737 164.172 27.177C164.368 27.059 164.519 27 164.623 27C164.767 27 164.892 27.0984 164.996 27.295L166.037 29.085C166.115 29.2161 166.154 29.3276 166.154 29.4194C166.154 29.5767 166.063 29.7079 165.88 29.8128C165.278 30.1799 164.643 30.4553 163.976 30.6389C163.321 30.8225 162.53 30.9143 161.601 30.9143Z" fill="white"/>
<path d="M172.603 30.9143C171.387 30.9143 170.333 30.711 169.443 30.3045C168.567 29.8849 167.899 29.3014 167.441 28.5539C166.983 27.7933 166.754 26.9082 166.754 25.8985C166.754 24.8757 166.983 23.9905 167.441 23.2431C167.899 22.4825 168.567 21.899 169.443 21.4925C170.333 21.086 171.387 20.8827 172.603 20.8827C174.448 20.8827 175.888 21.3351 176.922 22.2399C177.955 23.1316 178.472 24.3511 178.472 25.8985C178.472 26.9082 178.237 27.7933 177.766 28.5539C177.308 29.3014 176.64 29.8849 175.764 30.3045C174.887 30.711 173.833 30.9143 172.603 30.9143ZM172.603 27.6098C173.389 27.6098 173.781 27.0393 173.781 25.8985C173.781 25.2953 173.676 24.8626 173.467 24.6003C173.271 24.338 172.983 24.2069 172.603 24.2069C172.224 24.2069 171.936 24.338 171.74 24.6003C171.544 24.8626 171.445 25.2953 171.445 25.8985C171.445 27.0393 171.831 27.6098 172.603 27.6098Z" fill="white"/>
<path d="M180.65 30.6192C180.218 30.6192 179.911 30.5274 179.727 30.3439C179.544 30.1603 179.453 29.8783 179.453 29.4981V21.8269C179.453 21.5646 179.498 21.3941 179.59 21.3154C179.695 21.2237 179.898 21.1778 180.199 21.1778H182.475C182.645 21.1778 182.77 21.1974 182.848 21.2368C182.94 21.263 182.999 21.3351 183.025 21.4531L183.143 21.9449C183.522 21.617 183.928 21.3613 184.36 21.1778C184.805 20.9811 185.315 20.8827 185.891 20.8827C186.427 20.8827 186.879 20.9679 187.245 21.1384C187.624 21.2958 187.971 21.5515 188.285 21.9055C188.652 21.5777 189.051 21.3286 189.483 21.1581C189.914 20.9745 190.451 20.8827 191.092 20.8827C192.139 20.8827 192.944 21.1843 193.506 21.7875C194.082 22.3776 194.37 23.2759 194.37 24.4823V29.4981C194.37 29.8783 194.278 30.1603 194.095 30.3439C193.925 30.5274 193.624 30.6192 193.192 30.6192H191.249C190.817 30.6192 190.51 30.5274 190.327 30.3439C190.143 30.1603 190.052 29.8783 190.052 29.4981V24.7773C190.052 24.2659 189.882 24.0102 189.541 24.0102C189.345 24.0102 189.201 24.0758 189.11 24.2069C189.018 24.3249 188.972 24.5151 188.972 24.7773V29.4981C188.972 29.8783 188.881 30.1603 188.697 30.3439C188.527 30.5274 188.226 30.6192 187.795 30.6192H186.048C185.616 30.6192 185.308 30.5274 185.125 30.3439C184.942 30.1603 184.85 29.8783 184.85 29.4981V24.7773C184.85 24.2659 184.68 24.0102 184.34 24.0102C184.144 24.0102 184 24.0758 183.908 24.2069C183.817 24.3249 183.771 24.5151 183.771 24.7773V29.4981C183.771 29.8783 183.679 30.1603 183.496 30.3439C183.326 30.5274 183.025 30.6192 182.593 30.6192H180.65Z" fill="white"/>
</svg>
