<svg width="32" height="32" viewBox="0 0 32 32" fill="none" xmlns="http://www.w3.org/2000/svg">
<path fill-rule="evenodd" clip-rule="evenodd" d="M16.0002 19.9999C18.9457 19.9999 21.3335 17.6121 21.3335 14.6666V6.66659C21.3335 3.72107 18.9457 1.33325 16.0002 1.33325C13.0546 1.33325 10.6668 3.72107 10.6668 6.66659V14.6666C10.6668 17.6121 13.0546 19.9999 16.0002 19.9999ZM26.6668 14.6666C26.6668 13.9302 26.0699 13.3333 25.3335 13.3333C24.5971 13.3333 24.0002 13.9302 24.0002 14.6666C24.0002 19.0849 20.4184 22.6666 16.0002 22.6666C11.5819 22.6666 8.00016 19.0849 8.00016 14.6666C8.00016 13.9302 7.40321 13.3333 6.66683 13.3333C5.93045 13.3333 5.3335 13.9302 5.3335 14.6666C5.33837 20.0384 9.33715 24.5684 14.6668 25.2399V27.9999H12.0002C11.2638 27.9999 10.6668 28.5969 10.6668 29.3333C10.6668 30.0696 11.2638 30.6666 12.0002 30.6666H20.0002C20.7365 30.6666 21.3335 30.0696 21.3335 29.3333C21.3335 28.5969 20.7365 27.9999 20.0002 27.9999H17.3335V25.2399C22.6632 24.5684 26.662 20.0384 26.6668 14.6666Z" fill="white"/>
</svg>
