<svg width="29" height="29" viewBox="0 0 29 29" fill="none" xmlns="http://www.w3.org/2000/svg">
<path fill-rule="evenodd" clip-rule="evenodd" d="M22.1053 9.89553C20.6948 9.89553 19.4948 8.99407 19.0501 7.73586H14.5464V13.135H19.0501C19.4948 11.8768 20.6948 10.9754 22.1053 10.9754C23.8944 10.9754 25.3448 12.4257 25.3448 14.2149C25.3448 16.004 23.8944 17.4544 22.1053 17.4544C20.6948 17.4544 19.4948 16.5529 19.0501 15.2947H14.5464V20.6939H19.0501C19.4948 19.4357 20.6948 18.5342 22.1053 18.5342C23.8944 18.5342 25.3448 19.9846 25.3448 21.7737C25.3448 23.5629 23.8944 25.0133 22.1053 25.0133C20.6948 25.0133 19.4948 24.1118 19.0501 22.8536H13.4666C12.8702 22.8536 12.3868 22.3701 12.3868 21.7737V15.2947H10.0427C9.59802 16.5529 8.39807 17.4544 6.98756 17.4544C5.19843 17.4544 3.74805 16.004 3.74805 14.2149C3.74805 12.4257 5.19843 10.9754 6.98756 10.9754C8.39807 10.9754 9.59802 11.8768 10.0427 13.135H12.3868V6.65602C12.3868 6.05964 12.8702 5.57618 13.4666 5.57618H19.0501C19.4948 4.31796 20.6948 3.4165 22.1053 3.4165C23.8944 3.4165 25.3448 4.86688 25.3448 6.65602C25.3448 8.44515 23.8944 9.89553 22.1053 9.89553ZM21.0255 6.65602C21.0255 6.05964 21.5089 5.57618 22.1053 5.57618C22.7017 5.57618 23.1851 6.05964 23.1851 6.65602C23.1851 7.2524 22.7017 7.73586 22.1053 7.73586C21.5089 7.73586 21.0255 7.2524 21.0255 6.65602ZM8.0674 14.2149C8.0674 13.6185 7.58394 13.135 6.98756 13.135C6.39118 13.135 5.90772 13.6185 5.90772 14.2149C5.90772 14.8113 6.39118 15.2947 6.98756 15.2947C7.58394 15.2947 8.0674 14.8113 8.0674 14.2149ZM21.0255 14.2149C21.0255 14.8113 21.5089 15.2947 22.1053 15.2947C22.7017 15.2947 23.1851 14.8113 23.1851 14.2149C23.1851 13.6185 22.7017 13.135 22.1053 13.135C21.5089 13.135 21.0255 13.6185 21.0255 14.2149ZM22.1053 22.8536C21.5089 22.8536 21.0255 22.3701 21.0255 21.7737C21.0255 21.1774 21.5089 20.6939 22.1053 20.6939C22.7017 20.6939 23.1851 21.1774 23.1851 21.7737C23.1851 22.3701 22.7017 22.8536 22.1053 22.8536Z" fill="white"/>
<path d="M8.0674 14.2149C8.0674 13.6185 7.58394 13.135 6.98756 13.135C6.39118 13.135 5.90772 13.6185 5.90772 14.2149C5.90772 14.8113 6.39118 15.2947 6.98756 15.2947C7.58394 15.2947 8.0674 14.8113 8.0674 14.2149Z" fill="white"/>
<path d="M22.1053 15.2947C21.5089 15.2947 21.0255 14.8113 21.0255 14.2149C21.0255 13.6185 21.5089 13.135 22.1053 13.135C22.7017 13.135 23.1851 13.6185 23.1851 14.2149C23.1851 14.8113 22.7017 15.2947 22.1053 15.2947Z" fill="white"/>
<path d="M22.1053 5.57618C21.5089 5.57618 21.0255 6.05964 21.0255 6.65602C21.0255 7.2524 21.5089 7.73586 22.1053 7.73586C22.7017 7.73586 23.1851 7.2524 23.1851 6.65602C23.1851 6.05964 22.7017 5.57618 22.1053 5.57618Z" fill="white"/>
<path d="M21.0255 21.7737C21.0255 22.3701 21.5089 22.8536 22.1053 22.8536C22.7017 22.8536 23.1851 22.3701 23.1851 21.7737C23.1851 21.1774 22.7017 20.6939 22.1053 20.6939C21.5089 20.6939 21.0255 21.1774 21.0255 21.7737Z" fill="white"/>
</svg>
