<svg width="32" height="32" viewBox="0 0 32 32" fill="none" xmlns="http://www.w3.org/2000/svg">
<path d="M28 25.3334V26.6667H4V25.3334L6.66667 22.6667V14.6667C6.66667 10.5334 9.37333 6.89341 13.3333 5.72008C13.3333 5.58675 13.3333 5.46675 13.3333 5.33341C13.3333 4.62617 13.6143 3.94789 14.1144 3.4478C14.6145 2.9477 15.2928 2.66675 16 2.66675C16.7072 2.66675 17.3855 2.9477 17.8856 3.4478C18.3857 3.94789 18.6667 4.62617 18.6667 5.33341C18.6667 5.46675 18.6667 5.58675 18.6667 5.72008C22.6267 6.89341 25.3333 10.5334 25.3333 14.6667V22.6667L28 25.3334ZM18.6667 28.0001C18.6667 28.7073 18.3857 29.3856 17.8856 29.8857C17.3855 30.3858 16.7072 30.6667 16 30.6667C15.2928 30.6667 14.6145 30.3858 14.1144 29.8857C13.6143 29.3856 13.3333 28.7073 13.3333 28.0001" fill="white"/>
</svg>
