<svg width="33" height="32" viewBox="0 0 33 32" fill="none" xmlns="http://www.w3.org/2000/svg">
<path d="M16.8747 1.33325C16.1383 1.33325 15.5414 1.93021 15.5414 2.66659C15.5414 3.40296 16.1383 3.99992 16.8747 3.99992C22.7282 3.99992 27.6027 8.19092 28.6614 13.7359L26.3598 12.5851C25.7012 12.2558 24.9003 12.5228 24.571 13.1814C24.2417 13.8401 24.5086 14.641 25.1673 14.9703L29.6118 17.1925C30.0251 17.3991 30.5159 17.3771 30.909 17.1341C31.3021 16.8912 31.5414 16.462 31.5414 15.9999C31.5414 7.89973 24.9749 1.33325 16.8747 1.33325Z" fill="white"/>
<path fill-rule="evenodd" clip-rule="evenodd" d="M10.0171 3.2395C6.75598 3.2395 4.11233 5.88315 4.11233 9.14426C4.11233 12.4054 6.75598 15.049 10.0171 15.049C13.2782 15.049 15.9218 12.4054 15.9218 9.14426C15.9218 5.88315 13.2782 3.2395 10.0171 3.2395ZM6.77899 9.14426C6.77899 7.35591 8.22874 5.90617 10.0171 5.90617C11.8054 5.90617 13.2552 7.35591 13.2552 9.14426C13.2552 10.9326 11.8054 12.3824 10.0171 12.3824C8.22874 12.3824 6.77899 10.9326 6.77899 9.14426Z" fill="white"/>
<path fill-rule="evenodd" clip-rule="evenodd" d="M23.7313 16.953C20.4702 16.953 17.8265 19.5967 17.8265 22.8578C17.8265 26.1189 20.4702 28.7626 23.7313 28.7626C26.9924 28.7626 29.6361 26.1189 29.6361 22.8578C29.6361 19.5967 26.9924 16.953 23.7313 16.953ZM20.4932 22.8578C20.4932 21.0695 21.9429 19.6197 23.7313 19.6197C25.5196 19.6197 26.9694 21.0695 26.9694 22.8578C26.9694 24.6462 25.5196 26.0959 23.7313 26.0959C21.9429 26.0959 20.4932 24.6462 20.4932 22.8578Z" fill="white"/>
<path d="M2.84037 14.8657C3.23345 14.6228 3.72431 14.6007 4.13762 14.8073L8.58204 17.0295C9.24068 17.3589 9.50764 18.1598 9.17833 18.8184C8.84901 19.477 8.04811 19.744 7.38947 19.4147L5.08793 18.2639C6.14664 23.8089 11.0212 27.9999 16.8747 27.9999C17.6111 27.9999 18.208 28.5969 18.208 29.3333C18.208 30.0696 17.6111 30.6666 16.8747 30.6666C8.77451 30.6666 2.20801 24.1001 2.20801 15.9999C2.20801 15.5378 2.44728 15.1087 2.84037 14.8657Z" fill="white"/>
<path d="M10.0171 5.90617C8.22874 5.90617 6.77899 7.35591 6.77899 9.14426C6.77899 10.9326 8.22874 12.3824 10.0171 12.3824C11.8054 12.3824 13.2552 10.9326 13.2552 9.14426C13.2552 7.35591 11.8054 5.90617 10.0171 5.90617Z" fill="white"/>
<path d="M23.7313 19.6197C21.9429 19.6197 20.4932 21.0695 20.4932 22.8578C20.4932 24.6462 21.9429 26.0959 23.7313 26.0959C25.5196 26.0959 26.9694 24.6462 26.9694 22.8578C26.9694 21.0695 25.5196 19.6197 23.7313 19.6197Z" fill="white"/>
</svg>
