<svg width="10" height="10" viewBox="0 0 20 20" fill="none" xmlns="http://www.w3.org/2000/svg">
<path d="M17.4999 15.8334V16.6667H2.49992V15.8334L4.16658 14.1667V9.16675C4.16658 6.58341 5.85825 4.30841 8.33325 3.57508C8.33325 3.49175 8.33325 3.41675 8.33325 3.33341C8.33325 2.89139 8.50885 2.46746 8.82141 2.1549C9.13397 1.84234 9.55789 1.66675 9.99992 1.66675C10.4419 1.66675 10.8659 1.84234 11.1784 2.1549C11.491 2.46746 11.6666 2.89139 11.6666 3.33341C11.6666 3.41675 11.6666 3.49175 11.6666 3.57508C14.1416 4.30841 15.8333 6.58341 15.8333 9.16675V14.1667L17.4999 15.8334ZM11.6666 17.5001C11.6666 17.9421 11.491 18.366 11.1784 18.6786C10.8659 18.9912 10.4419 19.1667 9.99992 19.1667C9.55789 19.1667 9.13397 18.9912 8.82141 18.6786C8.50885 18.366 8.33325 17.9421 8.33325 17.5001H11.6666ZM16.4583 2.65841L15.2749 3.84175C16.6999 5.25008 17.4999 7.16675 17.4999 9.16675H19.1666C19.1666 6.72508 18.1999 4.37508 16.4583 2.65841ZM0.833252 9.16675H2.49992C2.49992 7.16675 3.29992 5.25008 4.72492 3.84175L3.54158 2.65841C1.79992 4.37508 0.833252 6.72508 0.833252 9.16675Z" fill="white"/>
</svg>
