<svg width="89" height="75" viewBox="0 0 89 75" fill="none" xmlns="http://www.w3.org/2000/svg">
<g clip-path="url(#clip0_102_2423)">
<path d="M79.5371 27.6279H79.5102L64.0645 34.2132L42.9316 43.2233C42.8491 43.2579 42.7604 43.276 42.6709 43.2765C42.5813 43.2769 42.4925 43.2598 42.4095 43.2259L20.6066 34.1944L4.78149 27.6387L4.75732 27.6279H4.73039C4.48069 27.6282 4.2413 27.7274 4.06473 27.9037C3.88817 28.08 3.78885 28.319 3.78857 28.5683V69.4071C3.78885 69.6564 3.88817 69.8955 4.06473 70.0717C4.2413 70.248 4.48069 70.3472 4.73039 70.3475H79.5371C79.7868 70.3472 80.0262 70.248 80.2028 70.0717C80.3794 69.8955 80.4787 69.6564 80.4789 69.4071V28.5683C80.4787 28.319 80.3794 28.08 80.2028 27.9037C80.0262 27.7274 79.7868 27.6282 79.5371 27.6279Z" fill="white"/>
<path d="M79.6047 27.8965C79.5772 27.8965 79.5504 27.8881 79.5279 27.8724L42.3184 1.99837C42.2052 1.92 42.0706 1.87811 41.9328 1.87835C41.795 1.87858 41.6606 1.92092 41.5476 1.99968L4.60621 27.8721C4.57698 27.8924 4.54089 27.9004 4.50583 27.8941C4.47077 27.8879 4.43961 27.8681 4.41916 27.839C4.39872 27.8099 4.39067 27.7739 4.39676 27.7389C4.40285 27.7038 4.42258 27.6726 4.45166 27.6521L41.3931 1.77969C41.5513 1.66944 41.7395 1.61018 41.9324 1.60986C42.1253 1.60955 42.3136 1.66819 42.4722 1.77792L79.6816 27.6519C79.7052 27.6682 79.7228 27.6916 79.7321 27.7187C79.7413 27.7458 79.7417 27.7751 79.7331 27.8024C79.7245 27.8297 79.7074 27.8535 79.6843 27.8704C79.6612 27.8874 79.6333 27.8965 79.6047 27.8965H79.6047Z" fill="black"/>
<path d="M6.7168 28.814L41.9689 2.72778L77.4888 30.6701L43.7853 50.6192L25.4873 46.4549L6.7168 28.814Z" fill="#B1DDC4"/>
<path d="M27.0316 62.9412H9.61611C9.40032 62.9415 9.19324 62.8562 9.04043 62.7041C8.88761 62.552 8.80159 62.3455 8.80127 62.13C8.80095 61.9145 8.88636 61.7078 9.03873 61.5552C9.19109 61.4026 9.39792 61.3167 9.61371 61.3164H27.0316C27.2474 61.3161 27.4545 61.4014 27.6073 61.5535C27.7601 61.7056 27.8461 61.9121 27.8464 62.1276C27.8468 62.3431 27.7613 62.5498 27.609 62.7024C27.4566 62.855 27.2498 62.9409 27.034 62.9412H27.0316Z" fill="#55AE3A"/>
<path d="M15.8638 59.4483H9.61555C9.39985 59.4484 9.19292 59.3631 9.04023 59.211C8.88754 59.0589 8.80159 58.8524 8.80127 58.6371C8.80095 58.4217 8.88629 58.215 9.03853 58.0625C9.19077 57.9099 9.39745 57.824 9.61315 57.8235H15.8638C15.9707 57.8233 16.0766 57.8441 16.1755 57.8847C16.2743 57.9254 16.3641 57.985 16.4399 58.0604C16.5156 58.1357 16.5757 58.2252 16.6168 58.3237C16.6579 58.4223 16.6791 58.5279 16.6792 58.6347C16.6794 58.7414 16.6585 58.8471 16.6177 58.9458C16.5769 59.0444 16.5171 59.1341 16.4416 59.2097C16.3661 59.2852 16.2764 59.3452 16.1777 59.3861C16.079 59.4271 15.9731 59.4482 15.8662 59.4483H15.8638Z" fill="#55AE3A"/>
<path d="M42.4651 43.3434C42.3327 43.3435 42.2016 43.3179 42.079 43.2679L20.3379 34.2607V6.06659C20.3382 5.81727 20.4375 5.57826 20.6141 5.40197C20.7906 5.22568 21.03 5.12651 21.2797 5.12622H62.9885C63.2382 5.12651 63.4776 5.22568 63.6541 5.40197C63.8307 5.57826 63.93 5.81727 63.9303 6.06659V34.2804L63.8894 34.2978L42.8628 43.2635C42.7369 43.3163 42.6016 43.3435 42.4651 43.3434Z" fill="white"/>
<path d="M42.464 43.4103C42.3228 43.4105 42.183 43.3831 42.0523 43.3299L20.2695 34.3053V6.06637C20.2698 5.79925 20.3762 5.54315 20.5654 5.35427C20.7546 5.16539 21.0111 5.05914 21.2786 5.05884H62.9874C63.255 5.05914 63.5114 5.16539 63.7006 5.35427C63.8898 5.54315 63.9962 5.79925 63.9965 6.06637V34.3245L42.8881 43.325C42.7539 43.3814 42.6097 43.4104 42.464 43.4103ZM20.5386 34.1259L42.155 43.0815C42.3566 43.1632 42.5824 43.1618 42.783 43.0777L63.7274 34.1471V6.06637C63.7272 5.87049 63.6491 5.68269 63.5104 5.54418C63.3717 5.40567 63.1836 5.32776 62.9874 5.32753H21.2786C21.0824 5.32776 20.8944 5.40567 20.7556 5.54418C20.6169 5.68269 20.5389 5.87049 20.5386 6.06637L20.5386 34.1259Z" fill="black"/>
<path d="M79.335 27.6279H79.308L63.8624 34.2132L42.7295 43.2233C42.6469 43.2579 42.5583 43.276 42.4687 43.2765C42.3791 43.2769 42.2903 43.2598 42.2074 43.2259L20.4045 34.1944L4.57936 27.6387L4.55517 27.6279H4.52823C4.27853 27.6282 4.03915 27.7274 3.86258 27.9037C3.68602 28.08 3.5867 28.319 3.58643 28.5683V69.4071C3.5867 69.6564 3.68602 69.8955 3.86258 70.0717C4.03915 70.248 4.27853 70.3472 4.52823 70.3475H79.335C79.5847 70.3472 79.8241 70.248 80.0006 70.0717C80.1772 69.8955 80.2765 69.6564 80.2768 69.4071V28.5683C80.2765 28.319 80.1772 28.08 80.0006 27.9037C79.8241 27.7274 79.5847 27.6282 79.335 27.6279ZM80.0077 69.4071C80.0076 69.5852 79.9367 69.756 79.8106 69.882C79.6845 70.0079 79.5134 70.0787 79.335 70.0788H4.52823C4.34984 70.0787 4.17877 70.0079 4.05262 69.882C3.92648 69.756 3.85559 69.5852 3.85552 69.4071V28.5683C3.85576 28.3946 3.92323 28.2277 4.04384 28.1025C4.16445 27.9774 4.32885 27.9036 4.50268 27.8966L20.4045 34.4845L42.1039 43.4745C42.3388 43.5699 42.602 43.5684 42.8358 43.4704L63.8624 34.5047L79.3619 27.8966C79.5354 27.9041 79.6994 27.9781 79.8197 28.1032C79.94 28.2283 80.0073 28.3949 80.0077 28.5683V69.4071Z" fill="black"/>
<path d="M39.0801 15.6653H24.2802C23.995 15.6649 23.7216 15.5515 23.5201 15.35C23.3185 15.1485 23.2053 14.8753 23.2053 14.5906C23.2053 14.3058 23.3185 14.0327 23.5201 13.8312C23.7216 13.6297 23.995 13.5163 24.2802 13.5159H39.0801C39.3653 13.5163 39.6387 13.6297 39.8402 13.8312C40.0417 14.0327 40.1549 14.3058 40.1549 14.5906C40.1549 14.8753 40.0417 15.1485 39.8402 15.35C39.6387 15.5515 39.3653 15.6649 39.0801 15.6653Z" fill="#55AE3A"/>
<path d="M31.4111 11.0984H24.2802C23.9947 11.0984 23.721 10.9852 23.5191 10.7836C23.3173 10.5821 23.2039 10.3087 23.2039 10.0237C23.2039 9.73865 23.3173 9.46529 23.5191 9.26375C23.721 9.0622 23.9947 8.94897 24.2802 8.94897H31.4111C31.6965 8.94897 31.9703 9.0622 32.1722 9.26375C32.374 9.46529 32.4874 9.73865 32.4874 10.0237C32.4874 10.3087 32.374 10.5821 32.1722 10.7836C31.9703 10.9852 31.6965 11.0984 31.4111 11.0984Z" fill="#55AE3A"/>
<path d="M53.2022 26.4126H30.5987C30.3135 26.4122 30.0402 26.2988 29.8386 26.0973C29.6371 25.8958 29.5239 25.6227 29.5239 25.3379C29.5239 25.0531 29.6371 24.78 29.8386 24.5785C30.0402 24.377 30.3135 24.2636 30.5987 24.2632H53.2022C53.4874 24.2636 53.7608 24.377 53.9623 24.5785C54.1638 24.78 54.277 25.0531 54.277 25.3379C54.277 25.6227 54.1638 25.8958 53.9623 26.0973C53.7608 26.2988 53.4874 26.4122 53.2022 26.4126Z" fill="#E5E5E5"/>
<path d="M53.2023 31.3833H30.5988C30.3133 31.3833 30.0396 31.2701 29.8377 31.0685C29.6359 30.867 29.5225 30.5936 29.5225 30.3086C29.5225 30.0236 29.6359 29.7502 29.8377 29.5487C30.0396 29.3471 30.3133 29.2339 30.5988 29.2339H53.2023C53.4878 29.2339 53.7615 29.3471 53.9634 29.5487C54.1653 29.7502 54.2787 30.0236 54.2787 30.3086C54.2787 30.5936 54.1653 30.867 53.9634 31.0685C53.7615 31.2701 53.4878 31.3833 53.2023 31.3833Z" fill="#E5E5E5"/>
<path d="M78.9176 38.2367C84.5701 38.2367 89.1524 33.6615 89.1524 28.0176C89.1524 22.3738 84.5701 17.7986 78.9176 17.7986C73.2651 17.7986 68.6829 22.3738 68.6829 28.0176C68.6829 33.6615 73.2651 38.2367 78.9176 38.2367Z" fill="#55AE3A"/>
<path d="M77.9431 32.3314L74.8799 28.3986L76.6612 27.0151L78.1116 28.8773L83.0115 23.7126L84.65 25.2626L77.9431 32.3314Z" fill="white"/>
</g>
<defs>
<clipPath id="clip0_102_2423">
<rect width="89" height="75" fill="white"/>
</clipPath>
</defs>
</svg>
